# xmcd
#
# Track frame offsets:
#	150
#	40843
#	105546
#	162809
#	235298
#	298489
#	329571
#
# Disc length: 4737
#
# Revision: 1
# Processed by: cddbd v1.5.1PL0 Copyright (c) Steve Scherf et al.
# Submitted via: ExactAudioCopy v0.95a3
# Normalized: r0:TRMNUM
#
DISCID=63127f07
DTITLE=Steve Kimock - Blowin your mind
DYEAR=1999
DGENRE=Acid Jazz
TTITLE0=Little Wing
TTITLE1=Cole's Law
TTITLE2=Tounge in Groove
TTITLE3=My Favorite Things
TTITLE4=Stella Blue
TTITLE5=Steel Guitar Rag
TTITLE6=Encore
EXTD=
EXTT0=
EXTT1=
EXTT2=
EXTT3=
EXTT4=
EXTT5=
EXTT6=
PLAYORDER=
